<?xml version="1.0" encoding="UTF-8"?>
<svg id="_圖層_1" data-name="圖層_1" xmlns="http://www.w3.org/2000/svg" version="1.1" xmlns:cc="http://creativecommons.org/ns#" xmlns:dc="http://purl.org/dc/elements/1.1/" xmlns:inkscape="http://www.inkscape.org/namespaces/inkscape" xmlns:rdf="http://www.w3.org/1999/02/22-rdf-syntax-ns#" xmlns:svg="http://www.w3.org/2000/svg" viewBox="0 0 2701.28 1186.16">
  <!-- Generator: Adobe Illustrator 29.5.1, SVG Export Plug-In . SVG Version: 2.1.0 Build 141)  -->
  <defs>
    <style>
      .st0 {
        stroke: #000;
      }

      .st0, .st1 {
        fill: none;
        stroke-linecap: round;
        stroke-linejoin: round;
        stroke-width: .57px;
      }

      .st1 {
        stroke: blue;
      }

      .st2 {
        fill: red;
        font-family: ArialMT, Arial;
        font-size: 17.01px;
        isolation: isolate;
      }
    </style>
  </defs>
  <g id="p-0">
    <path class="st0" d="M28.63,1157.81h283.46v-28.35H28.63v28.35Z"/>
    <text class="st2" transform="translate(80.09 1149.73)"><tspan x="0" y="0">100.0mm, burn:0.10mm</tspan></text>
  </g>
  <g id="p-2">
    <path class="st0" d="M396.99,1116.14h4.29c.29,0,0-.28,0,0v8.22c0,.16.13.28.29.28h17.01c.16,0,.28-.13.28-.28v-8.22c0-.28-.28,0,0,0h4.29c.16,0,.28-.13.28-.28v-208.06c0-.28-.28,0,0,0h7.94c.28,0,0-.28,0,0v208.06c0,.16.13.28.28.28h4.29c.29,0,0-.28,0,0v8.22c0,.16.13.28.29.28h17.01c.16,0,.28-.13.28-.28v-8.22c0-.28-.28,0,0,0h4.29c.16,0,.28-.13.28-.28v-208.06c0-.28-.28,0,0,0h7.94c.28,0,0-.28,0,0v208.06c0,.16.13.28.28.28h4.29c.29,0,0-.28,0,0v8.22c0,.16.13.28.29.28h17.01c.16,0,.28-.13.28-.28v-8.22c0-.28-.28,0,0,0h4.29c.16,0,.28-.13.28-.28v-208.06c0-.28-.28,0,0,0h7.94c.28,0,0-.28,0,0v208.06c0,.16.13.28.28.28h4.29c.29,0,0-.28,0,0v8.22c0,.16.13.28.29.28h17.01c.16,0,.28-.13.28-.28v-8.22c0-.28-.28,0,0,0h4.29c.16,0,.28-.13.28-.28v-208.06c0-.28-.28,0,0,0h7.94c.28,0,0-.28,0,0v208.06c0,.16.13.28.28.28h4.29c.28,0,0-.28,0,0v8.22c0,.16.12.28.28.28h17.01c.16,0,.28-.13.28-.28v-8.22c0-.28-.28,0,0,0h4.29c.16,0,.28-.13.28-.28v-208.06c0-.28-.28,0,0,0h7.94c.28,0,0-.28,0,0v208.06c0,.16.13.28.28.28h4.29c.28,0,0-.28,0,0v8.22c0,.16.12.28.28.28h17.01c.16,0,.28-.13.28-.28v-8.22c0-.28-.28,0,0,0h4.29c.16,0,.28-.13.28-.28v-208.06c0-.28-.28,0,0,0h7.94c.28,0,0-.28,0,0v208.06c0,.16.13.28.28.28h4.29c.28,0,0-.28,0,0v8.22c0,.16.12.28.28.28h17.01c.16,0,.28-.13.28-.28v-8.22c0-.28-.28,0,0,0h4.29c.16,0,.28-.13.28-.28v-208.06c0-.28-.28,0,0,0h7.94c.28,0,0-.28,0,0v208.06c0,.16.13.28.28.28h4.29c.28,0,0-.28,0,0v8.22c0,.16.12.28.28.28h17.01c.16,0,.28-.13.28-.28v-8.22c0-.28-.28,0,0,0h4.29c.16,0,.28-.13.28-.28v-208.06c0-.28-.28,0,0,0h7.94c.28,0,0-.28,0,0v208.06c0,.16.13.28.28.28h4.29c.29,0,0-.28,0,0v8.22c0,.16.13.28.29.28h17.01c.16,0,.28-.13.28-.28v-8.22c0-.28-.28,0,0,0h4.29c.16,0,.28-.13.28-.28v-208.06c0-.28-.28,0,0,0h7.94c.28,0,0-.28,0,0v208.06c0,.16.13.28.28.28h4.29c.29,0,0-.28,0,0v8.22c0,.16.13.28.29.28h17.01c.16,0,.28-.13.28-.28v-8.22c0-.28-.28,0,0,0h4.29c.16,0,.28-.13.28-.28v-29.48c0-.28-.28,0,0,0h8.22c.16,0,.28-.13.28-.28v-17.01c0-.16-.13-.28-.28-.28h-8.22c-.28,0,0,.28,0,0v-16.44c0-.28-.28,0,0,0h8.22c.16,0,.28-.13.28-.28v-17.01c0-.16-.13-.28-.28-.28h-8.22c-.28,0,0,.28,0,0v-16.44c0-.28-.28,0,0,0h8.22c.16,0,.28-.13.28-.28v-17.01c0-.16-.13-.28-.28-.28h-8.22c-.28,0,0,.28,0,0v-16.44c0-.28-.28,0,0,0h8.22c.16,0,.28-.13.28-.28v-17.01c0-.16-.13-.28-.28-.28h-8.22c-.28,0,0,.28,0,0v-16.44c0-.28-.28,0,0,0h8.22c.16,0,.28-.13.28-.28v-17.01c0-.16-.13-.28-.28-.28h-8.22c-.28,0,0,.28,0,0v-16.44c0-.28-.28,0,0,0h8.22c.16,0,.28-.13.28-.28v-17.01c0-.16-.13-.28-.28-.28h-8.22c-.28,0,0,.28,0,0v-16.44c0-.28-.28,0,0,0h8.22c.16,0,.28-.13.28-.28v-17.01c0-.16-.13-.28-.28-.28h-8.22c-.28,0,0,.28,0,0v-16.44c0-.28-.28,0,0,0h8.22c.16,0,.28-.13.28-.28v-17.01c0-.16-.13-.28-.28-.28h-8.22c-.28,0,0,.28,0,0v-16.44c0-.28-.28,0,0,0h8.22c.16,0,.28-.13.28-.28v-17.01c0-.16-.13-.28-.28-.28h-8.22c-.28,0,0,.28,0,0v-16.44c0-.28-.28,0,0,0h8.22c.16,0,.28-.13.28-.28v-17.01c0-.16-.13-.28-.28-.28h-8.22c-.28,0,0,.28,0,0v-16.44c0-.28-.28,0,0,0h8.22c.16,0,.28-.13.28-.28v-17.01c0-.16-.13-.28-.28-.28h-8.22c-.28,0,0,.28,0,0v-29.48c0-.16-.13-.28-.28-.28h-338.03c-.16,0-.28.13-.28.28v29.48c0,.28.28,0,0,0h-8.22c-.16,0-.28.13-.28.28v17.01c0,.16.13.28.28.28h8.22c.28,0,0-.28,0,0v16.44c0,.28.28,0,0,0h-8.22c-.16,0-.28.13-.28.28v17.01c0,.16.13.28.28.28h8.22c.28,0,0-.28,0,0v16.44c0,.28.28,0,0,0h-8.22c-.16,0-.28.13-.28.28v17.01c0,.16.13.28.28.28h8.22c.28,0,0-.28,0,0v16.44c0,.28.28,0,0,0h-8.22c-.16,0-.28.13-.28.28v17.01c0,.16.13.28.28.28h8.22c.28,0,0-.28,0,0v16.44c0,.28.28,0,0,0h-8.22c-.16,0-.28.13-.28.28v17.01c0,.16.13.28.28.28h8.22c.28,0,0-.28,0,0v16.44c0,.28.28,0,0,0h-8.22c-.16,0-.28.13-.28.28v17.01c0,.16.13.28.28.28h8.22c.28,0,0-.28,0,0v16.44c0,.28.28,0,0,0h-8.22c-.16,0-.28.13-.28.28v17.01c0,.16.13.28.28.28h8.22c.28,0,0-.28,0,0v16.44c0,.28.28,0,0,0h-8.22c-.16,0-.28.13-.28.28v17.01c0,.16.13.28.28.28h8.22c.28,0,0-.28,0,0v16.44c0,.28.28,0,0,0h-8.22c-.16,0-.28.13-.28.28v17.01c0,.16.13.28.28.28h8.22c.28,0,0-.28,0,0v16.44c0,.28.28,0,0,0h-8.22c-.16,0-.28.13-.28.28v17.01c0,.16.13.28.28.28h8.22c.28,0,0-.28,0,0v16.44c0,.28.28,0,0,0h-8.22c-.16,0-.28.13-.28.28v17.01c0,.16.13.28.28.28h8.22c.28,0,0-.28,0,0v29.48c0,.16.13.28.28.28Z"/>
  </g>
  <g id="p-4">
    <path class="st0" d="M37.13,686.13h26.82c.29,0,0-.28,0,0v8.22c0,.16.13.28.29.28h17.01c.16,0,.28-.13.28-.28v-8.22c0-.28-.28,0,0,0h16.44c.29,0,0-.28,0,0v8.22c0,.16.13.28.29.28h17.01c.16,0,.28-.13.28-.28v-8.22c0-.28-.28,0,0,0h62.15c.28,0,0-.28,0,0v8.22c0,.16.12.28.28.28h17.01c.16,0,.28-.13.28-.28v-8.22c0-.28-.28,0,0,0h16.44c.28,0,0-.28,0,0v8.22c0,.16.12.28.28.28h17.01c.16,0,.28-.13.28-.28v-8.22c0-.28-.28,0,0,0h35.33c.16,0,.28-.13.28-.28v-29.76c0-.16-.13-.28-.28-.28h-8.22c-.28,0,0,.28,0,0v-16.44c0-.28-.28,0,0,0h8.22c.16,0,.28-.13.28-.28v-17.01c0-.16-.13-.28-.28-.28h-8.22c-.28,0,0,.28,0,0v-16.44c0-.28-.28,0,0,0h8.22c.16,0,.28-.13.28-.28v-17.01c0-.16-.13-.28-.28-.28h-8.22c-.28,0,0,.28,0,0v-16.44c0-.28-.28,0,0,0h8.22c.16,0,.28-.13.28-.28v-17.01c0-.16-.13-.28-.28-.28h-8.22c-.28,0,0,.28,0,0v-16.44c0-.28-.28,0,0,0h8.22c.16,0,.28-.13.28-.28v-17.01c0-.16-.13-.28-.28-.28h-8.22c-.28,0,0,.28,0,0v-16.44c0-.28-.28,0,0,0h8.22c.16,0,.28-.13.28-.28v-17.01c0-.16-.13-.28-.28-.28h-8.22c-.28,0,0,.28,0,0v-16.44c0-.28-.28,0,0,0h8.22c.16,0,.28-.13.28-.28v-17.01c0-.16-.13-.28-.28-.28h-8.22c-.28,0,0,.28,0,0v-16.44c0-.28-.28,0,0,0h8.22c.16,0,.28-.13.28-.28v-17.01c0-.16-.13-.28-.28-.28h-8.22c-.28,0,0,.28,0,0v-16.44c0-.28-.28,0,0,0h8.22c.16,0,.28-.13.28-.28v-17.01c0-.16-.13-.28-.28-.28h-8.22c-.28,0,0,.28,0,0v-16.44c0-.28-.28,0,0,0h8.22c.16,0,.28-.13.28-.28v-17.01c0-.16-.13-.28-.28-.28h-8.22c-.28,0,0,.28,0,0v-16.44c0-.28-.28,0,0,0h8.22c.16,0,.28-.13.28-.28v-17.01c0-.16-.13-.28-.28-.28h-8.22c-.28,0,0,.28,0,0v-16.44c0-.28-.28,0,0,0h8.22c.16,0,.28-.13.28-.28v-29.76c0-.16-.13-.28-.28-.28H28.63c-.16,0-.28.13-.28.28v29.76c0,.16.13.28.28.28h8.22c.28,0,0-.28,0,0v16.44c0,.28.28,0,0,0h-8.22c-.16,0-.28.13-.28.28v17.01c0,.16.13.28.28.28h8.22c.28,0,0-.28,0,0v16.44c0,.28.28,0,0,0h-8.22c-.16,0-.28.13-.28.28v17.01c0,.16.13.28.28.28h8.22c.28,0,0-.28,0,0v16.44c0,.28.28,0,0,0h-8.22c-.16,0-.28.13-.28.28v17.01c0,.16.13.28.28.28h8.22c.28,0,0-.28,0,0v16.44c0,.28.28,0,0,0h-8.22c-.16,0-.28.13-.28.28v17.01c0,.16.13.28.28.28h8.22c.28,0,0-.28,0,0v16.44c0,.28.28,0,0,0h-8.22c-.16,0-.28.13-.28.28v17.01c0,.16.13.28.28.28h8.22c.28,0,0-.28,0,0v16.44c0,.28.28,0,0,0h-8.22c-.16,0-.28.13-.28.28v17.01c0,.16.13.28.28.28h8.22c.28,0,0-.28,0,0v16.44c0,.28.28,0,0,0h-8.22c-.16,0-.28.13-.28.28v17.01c0,.16.13.28.28.28h8.22c.28,0,0-.28,0,0v16.44c0,.28.28,0,0,0h-8.22c-.16,0-.28.13-.28.28v17.01c0,.16.13.28.28.28h8.22c.28,0,0-.28,0,0v16.44c0,.28.28,0,0,0h-8.22c-.16,0-.28.13-.28.28v17.01c0,.16.13.28.28.28h8.22c.28,0,0-.28,0,0v16.44c0,.28.28,0,0,0h-8.22c-.16,0-.28.13-.28.28v17.01c0,.16.13.28.28.28h8.22c.28,0,0-.28,0,0v16.44c0,.28.28,0,0,0h-8.22c-.16,0-.28.13-.28.28v29.76c0,.16.13.28.28.28h8.5Z"/>
    <path class="st1" d="M150.59,647.57v8.22c0,.28.28,0,0,0h-7.94c-.28,0,0,.28,0,0v-16.44c0-.28-.28,0,0,0h7.94c.28,0,0-.28,0,0v8.22Z"/>
    <path class="st1" d="M150.59,613.56v8.22c0,.28.28,0,0,0h-7.94c-.28,0,0,.28,0,0v-16.44c0-.28-.28,0,0,0h7.94c.28,0,0-.28,0,0v8.22Z"/>
    <path class="st1" d="M150.59,579.54v8.22c0,.28.28,0,0,0h-7.94c-.28,0,0,.28,0,0v-16.44c0-.28-.28,0,0,0h7.94c.28,0,0-.28,0,0v8.22Z"/>
    <path class="st1" d="M150.59,545.53v8.22c0,.28.28,0,0,0h-7.94c-.28,0,0,.28,0,0v-16.44c0-.28-.28,0,0,0h7.94c.28,0,0-.28,0,0v8.22Z"/>
    <path class="st1" d="M150.59,511.51v8.22c0,.28.28,0,0,0h-7.94c-.28,0,0,.28,0,0v-16.44c0-.28-.28,0,0,0h7.94c.28,0,0-.28,0,0v8.22Z"/>
    <path class="st1" d="M150.59,477.5v8.22c0,.28.28,0,0,0h-7.94c-.28,0,0,.28,0,0v-16.44c0-.28-.28,0,0,0h7.94c.28,0,0-.28,0,0v8.22Z"/>
    <path class="st1" d="M150.59,443.48v8.22c0,.28.28,0,0,0h-7.94c-.28,0,0,.28,0,0v-16.44c0-.28-.28,0,0,0h7.94c.28,0,0-.28,0,0v8.22Z"/>
    <path class="st1" d="M150.59,409.46v8.22c0,.28.28,0,0,0h-7.94c-.28,0,0,.28,0,0v-16.44c0-.28-.28,0,0,0h7.94c.28,0,0-.28,0,0v8.22Z"/>
    <path class="st1" d="M150.59,375.45v8.22c0,.28.28,0,0,0h-7.94c-.28,0,0,.28,0,0v-16.44c0-.28-.28,0,0,0h7.94c.28,0,0-.28,0,0v8.22Z"/>
    <path class="st1" d="M150.59,341.43v8.22c0,.28.28,0,0,0h-7.94c-.28,0,0,.28,0,0v-16.44c0-.28-.28,0,0,0h7.94c.28,0,0-.28,0,0v8.22Z"/>
    <path class="st1" d="M150.59,307.42v8.22c0,.28.28,0,0,0h-7.94c-.28,0,0,.28,0,0v-16.44c0-.28-.28,0,0,0h7.94c.28,0,0-.28,0,0v8.22Z"/>
  </g>
  <g id="p-5">
    <path class="st0" d="M277.94,686.13h26.82c.28,0,0-.28,0,0v8.22c0,.16.12.28.28.28h17.01c.16,0,.28-.13.28-.28v-8.22c0-.28-.28,0,0,0h16.44c.29,0,0-.28,0,0v8.22c0,.16.13.28.29.28h17.01c.16,0,.28-.13.28-.28v-8.22c0-.28-.28,0,0,0h62.15c.29,0,0-.28,0,0v8.22c0,.16.13.28.29.28h17.01c.16,0,.28-.13.28-.28v-8.22c0-.28-.28,0,0,0h16.44c.29,0,0-.28,0,0v8.22c0,.16.13.28.29.28h17.01c.16,0,.28-.13.28-.28v-8.22c0-.28-.28,0,0,0h26.82c.16,0,.28-.13.28-.28v-29.48c0-.28-.28,0,0,0h8.22c.16,0,.28-.13.28-.28v-17.01c0-.16-.13-.28-.28-.28h-8.22c-.28,0,0,.28,0,0v-16.44c0-.28-.28,0,0,0h8.22c.16,0,.28-.13.28-.28v-17.01c0-.16-.13-.28-.28-.28h-8.22c-.28,0,0,.28,0,0v-16.44c0-.28-.28,0,0,0h8.22c.16,0,.28-.13.28-.28v-17.01c0-.16-.13-.28-.28-.28h-8.22c-.28,0,0,.28,0,0v-16.44c0-.28-.28,0,0,0h8.22c.16,0,.28-.13.28-.28v-17.01c0-.16-.13-.28-.28-.28h-8.22c-.28,0,0,.28,0,0v-16.44c0-.28-.28,0,0,0h8.22c.16,0,.28-.13.28-.28v-17.01c0-.16-.13-.28-.28-.28h-8.22c-.28,0,0,.28,0,0v-16.44c0-.28-.28,0,0,0h8.22c.16,0,.28-.13.28-.28v-17.01c0-.16-.13-.28-.28-.28h-8.22c-.28,0,0,.28,0,0v-16.44c0-.28-.28,0,0,0h8.22c.16,0,.28-.13.28-.28v-17.01c0-.16-.13-.28-.28-.28h-8.22c-.28,0,0,.28,0,0v-16.44c0-.28-.28,0,0,0h8.22c.16,0,.28-.13.28-.28v-17.01c0-.16-.13-.28-.28-.28h-8.22c-.28,0,0,.28,0,0v-16.44c0-.28-.28,0,0,0h8.22c.16,0,.28-.13.28-.28v-17.01c0-.16-.13-.28-.28-.28h-8.22c-.28,0,0,.28,0,0v-16.44c0-.28-.28,0,0,0h8.22c.16,0,.28-.13.28-.28v-17.01c0-.16-.13-.28-.28-.28h-8.22c-.28,0,0,.28,0,0v-16.44c0-.28-.28,0,0,0h8.22c.16,0,.28-.13.28-.28v-17.01c0-.16-.13-.28-.28-.28h-8.22c-.28,0,0,.28,0,0v-29.48c0-.16-.13-.28-.28-.28h-105.24c-.16,0-.28.13-.28.28v208.06c0,.28.28,0,0,0h-7.94c-.28,0,0,.28,0,0v-208.06c0-.16-.13-.28-.28-.28h-105.24c-.16,0-.28.13-.28.28v29.48c0,.28.28,0,0,0h-8.22c-.16,0-.28.13-.28.28v17.01c0,.16.13.28.28.28h8.22c.28,0,0-.28,0,0v16.44c0,.28.28,0,0,0h-8.22c-.16,0-.28.13-.28.28v17.01c0,.16.13.28.28.28h8.22c.28,0,0-.28,0,0v16.44c0,.28.28,0,0,0h-8.22c-.16,0-.28.13-.28.28v17.01c0,.16.13.28.28.28h8.22c.28,0,0-.28,0,0v16.44c0,.28.28,0,0,0h-8.22c-.16,0-.28.13-.28.28v17.01c0,.16.13.28.28.28h8.22c.28,0,0-.28,0,0v16.44c0,.28.28,0,0,0h-8.22c-.16,0-.28.13-.28.28v17.01c0,.16.13.28.28.28h8.22c.28,0,0-.28,0,0v16.44c0,.28.28,0,0,0h-8.22c-.16,0-.28.13-.28.28v17.01c0,.16.13.28.28.28h8.22c.28,0,0-.28,0,0v16.44c0,.28.28,0,0,0h-8.22c-.16,0-.28.13-.28.28v17.01c0,.16.13.28.28.28h8.22c.28,0,0-.28,0,0v16.44c0,.28.28,0,0,0h-8.22c-.16,0-.28.13-.28.28v17.01c0,.16.13.28.28.28h8.22c.28,0,0-.28,0,0v16.44c0,.28.28,0,0,0h-8.22c-.16,0-.28.13-.28.28v17.01c0,.16.13.28.28.28h8.22c.28,0,0-.28,0,0v16.44c0,.28.28,0,0,0h-8.22c-.16,0-.28.13-.28.28v17.01c0,.16.13.28.28.28h8.22c.28,0,0-.28,0,0v16.44c0,.28.28,0,0,0h-8.22c-.16,0-.28.13-.28.28v17.01c0,.16.13.28.28.28h8.22c.28,0,0-.28,0,0v29.48c0,.16.13.28.28.28Z"/>
  </g>
  <g id="p-6">
    <path class="st0" d="M518.74,686.13h26.82c.28,0,0-.28,0,0v8.22c0,.16.12.28.28.28h17.01c.16,0,.28-.13.28-.28v-8.22c0-.28-.28,0,0,0h16.44c.29,0,0-.28,0,0v8.22c0,.16.13.28.29.28h17.01c.16,0,.28-.13.28-.28v-8.22c0-.28-.28,0,0,0h62.15c.29,0,0-.28,0,0v8.22c0,.16.13.28.29.28h17.01c.16,0,.28-.13.28-.28v-8.22c0-.28-.28,0,0,0h16.44c.29,0,0-.28,0,0v8.22c0,.16.13.28.29.28h17.01c.16,0,.28-.13.28-.28v-8.22c0-.28-.28,0,0,0h26.82c.16,0,.28-.13.28-.28v-29.48c0-.28-.28,0,0,0h8.22c.16,0,.28-.13.28-.28v-17.01c0-.16-.13-.28-.28-.28h-8.22c-.28,0,0,.28,0,0v-16.44c0-.28-.28,0,0,0h8.22c.16,0,.28-.13.28-.28v-17.01c0-.16-.13-.28-.28-.28h-8.22c-.28,0,0,.28,0,0v-16.44c0-.28-.28,0,0,0h8.22c.16,0,.28-.13.28-.28v-17.01c0-.16-.13-.28-.28-.28h-8.22c-.28,0,0,.28,0,0v-16.44c0-.28-.28,0,0,0h8.22c.16,0,.28-.13.28-.28v-17.01c0-.16-.13-.28-.28-.28h-8.22c-.28,0,0,.28,0,0v-16.44c0-.28-.28,0,0,0h8.22c.16,0,.28-.13.28-.28v-17.01c0-.16-.13-.28-.28-.28h-8.22c-.28,0,0,.28,0,0v-16.44c0-.28-.28,0,0,0h8.22c.16,0,.28-.13.28-.28v-17.01c0-.16-.13-.28-.28-.28h-8.22c-.28,0,0,.28,0,0v-16.44c0-.28-.28,0,0,0h8.22c.16,0,.28-.13.28-.28v-17.01c0-.16-.13-.28-.28-.28h-8.22c-.28,0,0,.28,0,0v-16.44c0-.28-.28,0,0,0h8.22c.16,0,.28-.13.28-.28v-17.01c0-.16-.13-.28-.28-.28h-8.22c-.28,0,0,.28,0,0v-16.44c0-.28-.28,0,0,0h8.22c.16,0,.28-.13.28-.28v-17.01c0-.16-.13-.28-.28-.28h-8.22c-.28,0,0,.28,0,0v-16.44c0-.28-.28,0,0,0h8.22c.16,0,.28-.13.28-.28v-17.01c0-.16-.13-.28-.28-.28h-8.22c-.28,0,0,.28,0,0v-16.44c0-.28-.28,0,0,0h8.22c.16,0,.28-.13.28-.28v-17.01c0-.16-.13-.28-.28-.28h-8.22c-.28,0,0,.28,0,0v-29.48c0-.16-.13-.28-.28-.28h-105.24c-.16,0-.28.13-.28.28v208.06c0,.28.28,0,0,0h-7.94c-.28,0,0,.28,0,0v-208.06c0-.16-.13-.28-.28-.28h-105.24c-.16,0-.28.13-.28.28v29.48c0,.28.28,0,0,0h-8.22c-.16,0-.28.13-.28.28v17.01c0,.16.13.28.28.28h8.22c.28,0,0-.28,0,0v16.44c0,.28.28,0,0,0h-8.22c-.16,0-.28.13-.28.28v17.01c0,.16.13.28.28.28h8.22c.28,0,0-.28,0,0v16.44c0,.28.28,0,0,0h-8.22c-.16,0-.28.13-.28.28v17.01c0,.16.13.28.28.28h8.22c.28,0,0-.28,0,0v16.44c0,.28.28,0,0,0h-8.22c-.16,0-.28.13-.28.28v17.01c0,.16.13.28.28.28h8.22c.28,0,0-.28,0,0v16.44c0,.28.28,0,0,0h-8.22c-.16,0-.28.13-.28.28v17.01c0,.16.13.28.28.28h8.22c.28,0,0-.28,0,0v16.44c0,.28.28,0,0,0h-8.22c-.16,0-.28.13-.28.28v17.01c0,.16.13.28.28.28h8.22c.28,0,0-.28,0,0v16.44c0,.28.28,0,0,0h-8.22c-.16,0-.28.13-.28.28v17.01c0,.16.13.28.28.28h8.22c.28,0,0-.28,0,0v16.44c0,.28.28,0,0,0h-8.22c-.16,0-.28.13-.28.28v17.01c0,.16.13.28.28.28h8.22c.28,0,0-.28,0,0v16.44c0,.28.28,0,0,0h-8.22c-.16,0-.28.13-.28.28v17.01c0,.16.13.28.28.28h8.22c.28,0,0-.28,0,0v16.44c0,.28.28,0,0,0h-8.22c-.16,0-.28.13-.28.28v17.01c0,.16.13.28.28.28h8.22c.28,0,0-.28,0,0v16.44c0,.28.28,0,0,0h-8.22c-.16,0-.28.13-.28.28v17.01c0,.16.13.28.28.28h8.22c.28,0,0-.28,0,0v29.48c0,.16.13.28.28.28Z"/>
  </g>
  <g id="p-7">
    <path class="st0" d="M759.54,686.13h26.82c.28,0,0-.28,0,0v8.22c0,.16.12.28.28.28h17.01c.16,0,.28-.13.28-.28v-8.22c0-.28-.28,0,0,0h16.44c.28,0,0-.28,0,0v8.22c0,.16.12.28.28.28h17.01c.16,0,.28-.13.28-.28v-8.22c0-.28-.28,0,0,0h62.15c.28,0,0-.28,0,0v8.22c0,.16.12.28.28.28h17.01c.16,0,.28-.13.28-.28v-8.22c0-.28-.28,0,0,0h16.44c.28,0,0-.28,0,0v8.22c0,.16.12.28.28.28h17.01c.16,0,.28-.13.28-.28v-8.22c0-.28-.28,0,0,0h26.82c.16,0,.28-.13.28-.28v-29.48c0-.28-.28,0,0,0h8.22c.16,0,.28-.13.28-.28v-17.01c0-.16-.13-.28-.28-.28h-8.22c-.28,0,0,.28,0,0v-16.44c0-.28-.28,0,0,0h8.22c.16,0,.28-.13.28-.28v-17.01c0-.16-.13-.28-.28-.28h-8.22c-.28,0,0,.28,0,0v-16.44c0-.28-.28,0,0,0h8.22c.16,0,.28-.13.28-.28v-17.01c0-.16-.13-.28-.28-.28h-8.22c-.28,0,0,.28,0,0v-16.44c0-.28-.28,0,0,0h8.22c.16,0,.28-.13.28-.28v-17.01c0-.16-.13-.28-.28-.28h-8.22c-.28,0,0,.28,0,0v-16.44c0-.28-.28,0,0,0h8.22c.16,0,.28-.13.28-.28v-17.01c0-.16-.13-.28-.28-.28h-8.22c-.28,0,0,.28,0,0v-16.44c0-.28-.28,0,0,0h8.22c.16,0,.28-.13.28-.28v-17.01c0-.16-.13-.28-.28-.28h-8.22c-.28,0,0,.28,0,0v-16.44c0-.28-.28,0,0,0h8.22c.16,0,.28-.13.28-.28v-17.01c0-.16-.13-.28-.28-.28h-8.22c-.28,0,0,.28,0,0v-16.44c0-.28-.28,0,0,0h8.22c.16,0,.28-.13.28-.28v-17.01c0-.16-.13-.28-.28-.28h-8.22c-.28,0,0,.28,0,0v-16.44c0-.28-.28,0,0,0h8.22c.16,0,.28-.13.28-.28v-17.01c0-.16-.13-.28-.28-.28h-8.22c-.28,0,0,.28,0,0v-16.44c0-.28-.28,0,0,0h8.22c.16,0,.28-.13.28-.28v-17.01c0-.16-.13-.28-.28-.28h-8.22c-.28,0,0,.28,0,0v-16.44c0-.28-.28,0,0,0h8.22c.16,0,.28-.13.28-.28v-17.01c0-.16-.13-.28-.28-.28h-8.22c-.28,0,0,.28,0,0v-29.48c0-.16-.13-.28-.28-.28h-105.24c-.16,0-.28.13-.28.28v208.06c0,.28.28,0,0,0h-7.94c-.28,0,0,.28,0,0v-208.06c0-.16-.13-.28-.28-.28h-105.24c-.16,0-.28.13-.28.28v29.48c0,.28.28,0,0,0h-8.22c-.16,0-.28.13-.28.28v17.01c0,.16.13.28.28.28h8.22c.28,0,0-.28,0,0v16.44c0,.28.28,0,0,0h-8.22c-.16,0-.28.13-.28.28v17.01c0,.16.13.28.28.28h8.22c.28,0,0-.28,0,0v16.44c0,.28.28,0,0,0h-8.22c-.16,0-.28.13-.28.28v17.01c0,.16.13.28.28.28h8.22c.28,0,0-.28,0,0v16.44c0,.28.28,0,0,0h-8.22c-.16,0-.28.13-.28.28v17.01c0,.16.13.28.28.28h8.22c.28,0,0-.28,0,0v16.44c0,.28.28,0,0,0h-8.22c-.16,0-.28.13-.28.28v17.01c0,.16.13.28.28.28h8.22c.28,0,0-.28,0,0v16.44c0,.28.28,0,0,0h-8.22c-.16,0-.28.13-.28.28v17.01c0,.16.13.28.28.28h8.22c.28,0,0-.28,0,0v16.44c0,.28.28,0,0,0h-8.22c-.16,0-.28.13-.28.28v17.01c0,.16.13.28.28.28h8.22c.28,0,0-.28,0,0v16.44c0,.28.28,0,0,0h-8.22c-.16,0-.28.13-.28.28v17.01c0,.16.13.28.28.28h8.22c.28,0,0-.28,0,0v16.44c0,.28.28,0,0,0h-8.22c-.16,0-.28.13-.28.28v17.01c0,.16.13.28.28.28h8.22c.28,0,0-.28,0,0v16.44c0,.28.28,0,0,0h-8.22c-.16,0-.28.13-.28.28v17.01c0,.16.13.28.28.28h8.22c.28,0,0-.28,0,0v16.44c0,.28.28,0,0,0h-8.22c-.16,0-.28.13-.28.28v17.01c0,.16.13.28.28.28h8.22c.28,0,0-.28,0,0v29.48c0,.16.13.28.28.28Z"/>
  </g>
  <g id="p-8">
    <path class="st0" d="M1000.35,686.13h26.82c.29,0,0-.28,0,0v8.22c0,.16.13.28.29.28h17.01c.16,0,.28-.13.28-.28v-8.22c0-.28-.28,0,0,0h16.44c.28,0,0-.28,0,0v8.22c0,.16.12.28.28.28h17.01c.16,0,.28-.13.28-.28v-8.22c0-.28-.28,0,0,0h62.15c.28,0,0-.28,0,0v8.22c0,.16.12.28.28.28h17.01c.16,0,.28-.13.28-.28v-8.22c0-.28-.28,0,0,0h16.44c.29,0,0-.28,0,0v8.22c0,.16.13.28.29.28h17.01c.16,0,.28-.13.28-.28v-8.22c0-.28-.28,0,0,0h26.82c.16,0,.28-.13.28-.28v-29.48c0-.28-.28,0,0,0h8.22c.16,0,.28-.13.28-.28v-17.01c0-.16-.13-.28-.28-.28h-8.22c-.28,0,0,.28,0,0v-16.44c0-.28-.28,0,0,0h8.22c.16,0,.28-.13.28-.28v-17.01c0-.16-.13-.28-.28-.28h-8.22c-.28,0,0,.28,0,0v-16.44c0-.28-.28,0,0,0h8.22c.16,0,.28-.13.28-.28v-17.01c0-.16-.13-.28-.28-.28h-8.22c-.28,0,0,.28,0,0v-16.44c0-.28-.28,0,0,0h8.22c.16,0,.28-.13.28-.28v-17.01c0-.16-.13-.28-.28-.28h-8.22c-.28,0,0,.28,0,0v-16.44c0-.28-.28,0,0,0h8.22c.16,0,.28-.13.28-.28v-17.01c0-.16-.13-.28-.28-.28h-8.22c-.28,0,0,.28,0,0v-16.44c0-.28-.28,0,0,0h8.22c.16,0,.28-.13.28-.28v-17.01c0-.16-.13-.28-.28-.28h-8.22c-.28,0,0,.28,0,0v-16.44c0-.28-.28,0,0,0h8.22c.16,0,.28-.13.28-.28v-17.01c0-.16-.13-.28-.28-.28h-8.22c-.28,0,0,.28,0,0v-16.44c0-.28-.28,0,0,0h8.22c.16,0,.28-.13.28-.28v-17.01c0-.16-.13-.28-.28-.28h-8.22c-.28,0,0,.28,0,0v-16.44c0-.28-.28,0,0,0h8.22c.16,0,.28-.13.28-.28v-17.01c0-.16-.13-.28-.28-.28h-8.22c-.28,0,0,.28,0,0v-16.44c0-.28-.28,0,0,0h8.22c.16,0,.28-.13.28-.28v-17.01c0-.16-.13-.28-.28-.28h-8.22c-.28,0,0,.28,0,0v-16.44c0-.28-.28,0,0,0h8.22c.16,0,.28-.13.28-.28v-17.01c0-.16-.13-.28-.28-.28h-8.22c-.28,0,0,.28,0,0v-29.48c0-.16-.13-.28-.28-.28h-105.24c-.16,0-.28.13-.28.28v208.06c0,.28.28,0,0,0h-7.94c-.28,0,0,.28,0,0v-208.06c0-.16-.13-.28-.28-.28h-105.24c-.16,0-.28.13-.28.28v29.48c0,.28.28,0,0,0h-8.22c-.16,0-.28.13-.28.28v17.01c0,.16.13.28.28.28h8.22c.28,0,0-.28,0,0v16.44c0,.28.28,0,0,0h-8.22c-.16,0-.28.13-.28.28v17.01c0,.16.13.28.28.28h8.22c.28,0,0-.28,0,0v16.44c0,.28.28,0,0,0h-8.22c-.16,0-.28.13-.28.28v17.01c0,.16.13.28.28.28h8.22c.28,0,0-.28,0,0v16.44c0,.28.28,0,0,0h-8.22c-.16,0-.28.13-.28.28v17.01c0,.16.13.28.28.28h8.22c.28,0,0-.28,0,0v16.44c0,.28.28,0,0,0h-8.22c-.16,0-.28.13-.28.28v17.01c0,.16.13.28.28.28h8.22c.28,0,0-.28,0,0v16.44c0,.28.28,0,0,0h-8.22c-.16,0-.28.13-.28.28v17.01c0,.16.13.28.28.28h8.22c.28,0,0-.28,0,0v16.44c0,.28.28,0,0,0h-8.22c-.16,0-.28.13-.28.28v17.01c0,.16.13.28.28.28h8.22c.28,0,0-.28,0,0v16.44c0,.28.28,0,0,0h-8.22c-.16,0-.28.13-.28.28v17.01c0,.16.13.28.28.28h8.22c.28,0,0-.28,0,0v16.44c0,.28.28,0,0,0h-8.22c-.16,0-.28.13-.28.28v17.01c0,.16.13.28.28.28h8.22c.28,0,0-.28,0,0v16.44c0,.28.28,0,0,0h-8.22c-.16,0-.28.13-.28.28v17.01c0,.16.13.28.28.28h8.22c.28,0,0-.28,0,0v16.44c0,.28.28,0,0,0h-8.22c-.16,0-.28.13-.28.28v17.01c0,.16.13.28.28.28h8.22c.28,0,0-.28,0,0v29.48c0,.16.13.28.28.28Z"/>
  </g>
  <g id="p-9">
    <path class="st0" d="M1241.15,686.13h26.82c.29,0,0-.28,0,0v8.22c0,.16.13.28.29.28h17.01c.16,0,.28-.13.28-.28v-8.22c0-.28-.28,0,0,0h16.44c.29,0,0-.28,0,0v8.22c0,.16.13.28.29.28h17.01c.16,0,.28-.13.28-.28v-8.22c0-.28-.28,0,0,0h62.15c.28,0,0-.28,0,0v8.22c0,.16.12.28.28.28h17.01c.16,0,.28-.13.28-.28v-8.22c0-.28-.28,0,0,0h16.44c.28,0,0-.28,0,0v8.22c0,.16.12.28.28.28h17.01c.16,0,.28-.13.28-.28v-8.22c0-.28-.28,0,0,0h26.82c.16,0,.28-.13.28-.28v-29.48c0-.28-.28,0,0,0h8.22c.16,0,.28-.13.28-.28v-17.01c0-.16-.13-.28-.28-.28h-8.22c-.28,0,0,.28,0,0v-16.44c0-.28-.28,0,0,0h8.22c.16,0,.28-.13.28-.28v-17.01c0-.16-.13-.28-.28-.28h-8.22c-.28,0,0,.28,0,0v-16.44c0-.28-.28,0,0,0h8.22c.16,0,.28-.13.28-.28v-17.01c0-.16-.13-.28-.28-.28h-8.22c-.28,0,0,.28,0,0v-16.44c0-.28-.28,0,0,0h8.22c.16,0,.28-.13.28-.28v-17.01c0-.16-.13-.28-.28-.28h-8.22c-.28,0,0,.28,0,0v-16.44c0-.28-.28,0,0,0h8.22c.16,0,.28-.13.28-.28v-17.01c0-.16-.13-.28-.28-.28h-8.22c-.28,0,0,.28,0,0v-16.44c0-.28-.28,0,0,0h8.22c.16,0,.28-.13.28-.28v-17.01c0-.16-.13-.28-.28-.28h-8.22c-.28,0,0,.28,0,0v-16.44c0-.28-.28,0,0,0h8.22c.16,0,.28-.13.28-.28v-17.01c0-.16-.13-.28-.28-.28h-8.22c-.28,0,0,.28,0,0v-16.44c0-.28-.28,0,0,0h8.22c.16,0,.28-.13.28-.28v-17.01c0-.16-.13-.28-.28-.28h-8.22c-.28,0,0,.28,0,0v-16.44c0-.28-.28,0,0,0h8.22c.16,0,.28-.13.28-.28v-17.01c0-.16-.13-.28-.28-.28h-8.22c-.28,0,0,.28,0,0v-16.44c0-.28-.28,0,0,0h8.22c.16,0,.28-.13.28-.28v-17.01c0-.16-.13-.28-.28-.28h-8.22c-.28,0,0,.28,0,0v-16.44c0-.28-.28,0,0,0h8.22c.16,0,.28-.13.28-.28v-17.01c0-.16-.13-.28-.28-.28h-8.22c-.28,0,0,.28,0,0v-29.48c0-.16-.13-.28-.28-.28h-105.24c-.16,0-.28.13-.28.28v208.06c0,.28.28,0,0,0h-7.94c-.28,0,0,.28,0,0v-208.06c0-.16-.13-.28-.28-.28h-105.24c-.16,0-.28.13-.28.28v29.48c0,.28.28,0,0,0h-8.22c-.16,0-.28.13-.28.28v17.01c0,.16.13.28.28.28h8.22c.28,0,0-.28,0,0v16.44c0,.28.28,0,0,0h-8.22c-.16,0-.28.13-.28.28v17.01c0,.16.13.28.28.28h8.22c.28,0,0-.28,0,0v16.44c0,.28.28,0,0,0h-8.22c-.16,0-.28.13-.28.28v17.01c0,.16.13.28.28.28h8.22c.28,0,0-.28,0,0v16.44c0,.28.28,0,0,0h-8.22c-.16,0-.28.13-.28.28v17.01c0,.16.13.28.28.28h8.22c.28,0,0-.28,0,0v16.44c0,.28.28,0,0,0h-8.22c-.16,0-.28.13-.28.28v17.01c0,.16.13.28.28.28h8.22c.28,0,0-.28,0,0v16.44c0,.28.28,0,0,0h-8.22c-.16,0-.28.13-.28.28v17.01c0,.16.13.28.28.28h8.22c.28,0,0-.28,0,0v16.44c0,.28.28,0,0,0h-8.22c-.16,0-.28.13-.28.28v17.01c0,.16.13.28.28.28h8.22c.28,0,0-.28,0,0v16.44c0,.28.28,0,0,0h-8.22c-.16,0-.28.13-.28.28v17.01c0,.16.13.28.28.28h8.22c.28,0,0-.28,0,0v16.44c0,.28.28,0,0,0h-8.22c-.16,0-.28.13-.28.28v17.01c0,.16.13.28.28.28h8.22c.28,0,0-.28,0,0v16.44c0,.28.28,0,0,0h-8.22c-.16,0-.28.13-.28.28v17.01c0,.16.13.28.28.28h8.22c.28,0,0-.28,0,0v16.44c0,.28.28,0,0,0h-8.22c-.16,0-.28.13-.28.28v17.01c0,.16.13.28.28.28h8.22c.28,0,0-.28,0,0v29.48c0,.16.13.28.28.28Z"/>
  </g>
  <g id="p-10">
    <path class="st0" d="M1481.95,686.13h26.82c.28,0,0-.28,0,0v8.22c0,.16.12.28.28.28h17.01c.16,0,.28-.13.28-.28v-8.22c0-.28-.28,0,0,0h16.44c.28,0,0-.28,0,0v8.22c0,.16.12.28.28.28h17.01c.16,0,.28-.13.28-.28v-8.22c0-.28-.28,0,0,0h62.15c.28,0,0-.28,0,0v8.22c0,.16.12.28.28.28h17.01c.16,0,.28-.13.28-.28v-8.22c0-.28-.28,0,0,0h16.44c.28,0,0-.28,0,0v8.22c0,.16.12.28.28.28h17.01c.16,0,.28-.13.28-.28v-8.22c0-.28-.28,0,0,0h26.82c.16,0,.28-.13.28-.28v-29.48c0-.28-.28,0,0,0h8.22c.16,0,.28-.13.28-.28v-17.01c0-.16-.13-.28-.28-.28h-8.22c-.28,0,0,.28,0,0v-16.44c0-.28-.28,0,0,0h8.22c.16,0,.28-.13.28-.28v-17.01c0-.16-.13-.28-.28-.28h-8.22c-.28,0,0,.28,0,0v-16.44c0-.28-.28,0,0,0h8.22c.16,0,.28-.13.28-.28v-17.01c0-.16-.13-.28-.28-.28h-8.22c-.28,0,0,.28,0,0v-16.44c0-.28-.28,0,0,0h8.22c.16,0,.28-.13.28-.28v-17.01c0-.16-.13-.28-.28-.28h-8.22c-.28,0,0,.28,0,0v-16.44c0-.28-.28,0,0,0h8.22c.16,0,.28-.13.28-.28v-17.01c0-.16-.13-.28-.28-.28h-8.22c-.28,0,0,.28,0,0v-16.44c0-.28-.28,0,0,0h8.22c.16,0,.28-.13.28-.28v-17.01c0-.16-.13-.28-.28-.28h-8.22c-.28,0,0,.28,0,0v-16.44c0-.28-.28,0,0,0h8.22c.16,0,.28-.13.28-.28v-17.01c0-.16-.13-.28-.28-.28h-8.22c-.28,0,0,.28,0,0v-16.44c0-.28-.28,0,0,0h8.22c.16,0,.28-.13.28-.28v-17.01c0-.16-.13-.28-.28-.28h-8.22c-.28,0,0,.28,0,0v-16.44c0-.28-.28,0,0,0h8.22c.16,0,.28-.13.28-.28v-17.01c0-.16-.13-.28-.28-.28h-8.22c-.28,0,0,.28,0,0v-16.44c0-.28-.28,0,0,0h8.22c.16,0,.28-.13.28-.28v-17.01c0-.16-.13-.28-.28-.28h-8.22c-.28,0,0,.28,0,0v-16.44c0-.28-.28,0,0,0h8.22c.16,0,.28-.13.28-.28v-17.01c0-.16-.13-.28-.28-.28h-8.22c-.28,0,0,.28,0,0v-29.48c0-.16-.13-.28-.28-.28h-105.24c-.16,0-.28.13-.28.28v208.06c0,.28.28,0,0,0h-7.94c-.28,0,0,.28,0,0v-208.06c0-.16-.13-.28-.28-.28h-105.24c-.16,0-.28.13-.28.28v29.48c0,.28.28,0,0,0h-8.22c-.16,0-.28.13-.28.28v17.01c0,.16.13.28.28.28h8.22c.28,0,0-.28,0,0v16.44c0,.28.28,0,0,0h-8.22c-.16,0-.28.13-.28.28v17.01c0,.16.13.28.28.28h8.22c.28,0,0-.28,0,0v16.44c0,.28.28,0,0,0h-8.22c-.16,0-.28.13-.28.28v17.01c0,.16.13.28.28.28h8.22c.28,0,0-.28,0,0v16.44c0,.28.28,0,0,0h-8.22c-.16,0-.28.13-.28.28v17.01c0,.16.13.28.28.28h8.22c.28,0,0-.28,0,0v16.44c0,.28.28,0,0,0h-8.22c-.16,0-.28.13-.28.28v17.01c0,.16.13.28.28.28h8.22c.28,0,0-.28,0,0v16.44c0,.28.28,0,0,0h-8.22c-.16,0-.28.13-.28.28v17.01c0,.16.13.28.28.28h8.22c.28,0,0-.28,0,0v16.44c0,.28.28,0,0,0h-8.22c-.16,0-.28.13-.28.28v17.01c0,.16.13.28.28.28h8.22c.28,0,0-.28,0,0v16.44c0,.28.28,0,0,0h-8.22c-.16,0-.28.13-.28.28v17.01c0,.16.13.28.28.28h8.22c.28,0,0-.28,0,0v16.44c0,.28.28,0,0,0h-8.22c-.16,0-.28.13-.28.28v17.01c0,.16.13.28.28.28h8.22c.28,0,0-.28,0,0v16.44c0,.28.28,0,0,0h-8.22c-.16,0-.28.13-.28.28v17.01c0,.16.13.28.28.28h8.22c.28,0,0-.28,0,0v16.44c0,.28.28,0,0,0h-8.22c-.16,0-.28.13-.28.28v17.01c0,.16.13.28.28.28h8.22c.28,0,0-.28,0,0v29.48c0,.16.13.28.28.28Z"/>
  </g>
  <g id="p-11">
    <path class="st0" d="M1722.76,686.13h26.82c.28,0,0-.28,0,0v8.22c0,.16.12.28.28.28h17.01c.16,0,.29-.13.29-.28v-8.22c0-.28-.29,0,0,0h16.44c.28,0,0-.28,0,0v8.22c0,.16.12.28.28.28h17.01c.16,0,.29-.13.29-.28v-8.22c0-.28-.29,0,0,0h62.15c.28,0,0-.28,0,0v8.22c0,.16.12.28.28.28h17.01c.16,0,.28-.13.28-.28v-8.22c0-.28-.28,0,0,0h16.44c.28,0,0-.28,0,0v8.22c0,.16.12.28.28.28h17.01c.16,0,.28-.13.28-.28v-8.22c0-.28-.28,0,0,0h26.82c.16,0,.28-.13.28-.28v-29.48c0-.28-.28,0,0,0h8.22c.16,0,.28-.13.28-.28v-17.01c0-.16-.13-.28-.28-.28h-8.22c-.28,0,0,.28,0,0v-16.44c0-.28-.28,0,0,0h8.22c.16,0,.28-.13.28-.28v-17.01c0-.16-.13-.28-.28-.28h-8.22c-.28,0,0,.28,0,0v-16.44c0-.28-.28,0,0,0h8.22c.16,0,.28-.13.28-.28v-17.01c0-.16-.13-.28-.28-.28h-8.22c-.28,0,0,.28,0,0v-16.44c0-.28-.28,0,0,0h8.22c.16,0,.28-.13.28-.28v-17.01c0-.16-.13-.28-.28-.28h-8.22c-.28,0,0,.28,0,0v-16.44c0-.28-.28,0,0,0h8.22c.16,0,.28-.13.28-.28v-17.01c0-.16-.13-.28-.28-.28h-8.22c-.28,0,0,.28,0,0v-16.44c0-.28-.28,0,0,0h8.22c.16,0,.28-.13.28-.28v-17.01c0-.16-.13-.28-.28-.28h-8.22c-.28,0,0,.28,0,0v-16.44c0-.28-.28,0,0,0h8.22c.16,0,.28-.13.28-.28v-17.01c0-.16-.13-.28-.28-.28h-8.22c-.28,0,0,.28,0,0v-16.44c0-.28-.28,0,0,0h8.22c.16,0,.28-.13.28-.28v-17.01c0-.16-.13-.28-.28-.28h-8.22c-.28,0,0,.28,0,0v-16.44c0-.28-.28,0,0,0h8.22c.16,0,.28-.13.28-.28v-17.01c0-.16-.13-.28-.28-.28h-8.22c-.28,0,0,.28,0,0v-16.44c0-.28-.28,0,0,0h8.22c.16,0,.28-.13.28-.28v-17.01c0-.16-.13-.28-.28-.28h-8.22c-.28,0,0,.28,0,0v-16.44c0-.28-.28,0,0,0h8.22c.16,0,.28-.13.28-.28v-17.01c0-.16-.13-.28-.28-.28h-8.22c-.28,0,0,.28,0,0v-29.48c0-.16-.13-.28-.28-.28h-105.24c-.16,0-.28.13-.28.28v208.06c0,.28.28,0,0,0h-7.94c-.28,0,0,.28,0,0v-208.06c0-.16-.13-.28-.28-.28h-105.24c-.16,0-.28.13-.28.28v29.48c0,.28.28,0,0,0h-8.22c-.16,0-.28.13-.28.28v17.01c0,.16.13.28.28.28h8.22c.28,0,0-.28,0,0v16.44c0,.28.28,0,0,0h-8.22c-.16,0-.28.13-.28.28v17.01c0,.16.13.28.28.28h8.22c.28,0,0-.28,0,0v16.44c0,.28.28,0,0,0h-8.22c-.16,0-.28.13-.28.28v17.01c0,.16.13.28.28.28h8.22c.28,0,0-.28,0,0v16.44c0,.28.28,0,0,0h-8.22c-.16,0-.28.13-.28.28v17.01c0,.16.13.28.28.28h8.22c.28,0,0-.28,0,0v16.44c0,.28.28,0,0,0h-8.22c-.16,0-.28.13-.28.28v17.01c0,.16.13.28.28.28h8.22c.28,0,0-.28,0,0v16.44c0,.28.28,0,0,0h-8.22c-.16,0-.28.13-.28.28v17.01c0,.16.13.28.28.28h8.22c.28,0,0-.28,0,0v16.44c0,.28.28,0,0,0h-8.22c-.16,0-.28.13-.28.28v17.01c0,.16.13.28.28.28h8.22c.28,0,0-.28,0,0v16.44c0,.28.28,0,0,0h-8.22c-.16,0-.28.13-.28.28v17.01c0,.16.13.28.28.28h8.22c.28,0,0-.28,0,0v16.44c0,.28.28,0,0,0h-8.22c-.16,0-.28.13-.28.28v17.01c0,.16.13.28.28.28h8.22c.28,0,0-.28,0,0v16.44c0,.28.28,0,0,0h-8.22c-.16,0-.28.13-.28.28v17.01c0,.16.13.28.28.28h8.22c.28,0,0-.28,0,0v16.44c0,.28.28,0,0,0h-8.22c-.16,0-.28.13-.28.28v17.01c0,.16.13.28.28.28h8.22c.28,0,0-.28,0,0v29.48c0,.16.13.28.28.28Z"/>
  </g>
  <g id="p-12">
    <path class="st0" d="M1963.56,686.13h26.82c.28,0,0-.28,0,0v8.22c0,.16.12.28.28.28h17.01c.16,0,.28-.13.28-.28v-8.22c0-.28-.28,0,0,0h16.44c.29,0,0-.28,0,0v8.22c0,.16.13.28.29.28h17.01c.16,0,.28-.13.28-.28v-8.22c0-.28-.28,0,0,0h62.15c.29,0,0-.28,0,0v8.22c0,.16.13.28.29.28h17.01c.16,0,.28-.13.28-.28v-8.22c0-.28-.28,0,0,0h16.44c.29,0,0-.28,0,0v8.22c0,.16.13.28.29.28h17.01c.16,0,.28-.13.28-.28v-8.22c0-.28-.28,0,0,0h26.82c.16,0,.28-.13.28-.28v-29.48c0-.28-.28,0,0,0h8.22c.16,0,.28-.13.28-.28v-17.01c0-.16-.13-.28-.28-.28h-8.22c-.28,0,0,.28,0,0v-16.44c0-.28-.28,0,0,0h8.22c.16,0,.28-.13.28-.28v-17.01c0-.16-.13-.28-.28-.28h-8.22c-.28,0,0,.28,0,0v-16.44c0-.28-.28,0,0,0h8.22c.16,0,.28-.13.28-.28v-17.01c0-.16-.13-.28-.28-.28h-8.22c-.28,0,0,.28,0,0v-16.44c0-.28-.28,0,0,0h8.22c.16,0,.28-.13.28-.28v-17.01c0-.16-.13-.28-.28-.28h-8.22c-.28,0,0,.28,0,0v-16.44c0-.28-.28,0,0,0h8.22c.16,0,.28-.13.28-.28v-17.01c0-.16-.13-.28-.28-.28h-8.22c-.28,0,0,.28,0,0v-16.44c0-.28-.28,0,0,0h8.22c.16,0,.28-.13.28-.28v-17.01c0-.16-.13-.28-.28-.28h-8.22c-.28,0,0,.28,0,0v-16.44c0-.28-.28,0,0,0h8.22c.16,0,.28-.13.28-.28v-17.01c0-.16-.13-.28-.28-.28h-8.22c-.28,0,0,.28,0,0v-16.44c0-.28-.28,0,0,0h8.22c.16,0,.28-.13.28-.28v-17.01c0-.16-.13-.28-.28-.28h-8.22c-.28,0,0,.28,0,0v-16.44c0-.28-.28,0,0,0h8.22c.16,0,.28-.13.28-.28v-17.01c0-.16-.13-.28-.28-.28h-8.22c-.28,0,0,.28,0,0v-16.44c0-.28-.28,0,0,0h8.22c.16,0,.28-.13.28-.28v-17.01c0-.16-.13-.28-.28-.28h-8.22c-.28,0,0,.28,0,0v-16.44c0-.28-.28,0,0,0h8.22c.16,0,.28-.13.28-.28v-17.01c0-.16-.13-.28-.28-.28h-8.22c-.28,0,0,.28,0,0v-29.48c0-.16-.13-.28-.28-.28h-105.24c-.16,0-.28.13-.28.28v208.06c0,.28.28,0,0,0h-7.94c-.28,0,0,.28,0,0v-208.06c0-.16-.13-.28-.28-.28h-105.24c-.16,0-.28.13-.28.28v29.48c0,.28.28,0,0,0h-8.22c-.16,0-.28.13-.28.28v17.01c0,.16.13.28.28.28h8.22c.28,0,0-.28,0,0v16.44c0,.28.28,0,0,0h-8.22c-.16,0-.28.13-.28.28v17.01c0,.16.13.28.28.28h8.22c.28,0,0-.28,0,0v16.44c0,.28.28,0,0,0h-8.22c-.16,0-.28.13-.28.28v17.01c0,.16.13.28.28.28h8.22c.28,0,0-.28,0,0v16.44c0,.28.28,0,0,0h-8.22c-.16,0-.28.13-.28.28v17.01c0,.16.13.28.28.28h8.22c.28,0,0-.28,0,0v16.44c0,.28.28,0,0,0h-8.22c-.16,0-.28.13-.28.28v17.01c0,.16.13.28.28.28h8.22c.28,0,0-.28,0,0v16.44c0,.28.28,0,0,0h-8.22c-.16,0-.28.13-.28.28v17.01c0,.16.13.28.28.28h8.22c.28,0,0-.28,0,0v16.44c0,.28.28,0,0,0h-8.22c-.16,0-.28.13-.28.28v17.01c0,.16.13.28.28.28h8.22c.28,0,0-.28,0,0v16.44c0,.28.28,0,0,0h-8.22c-.16,0-.28.13-.28.28v17.01c0,.16.13.28.28.28h8.22c.28,0,0-.28,0,0v16.44c0,.28.28,0,0,0h-8.22c-.16,0-.28.13-.28.28v17.01c0,.16.13.28.28.28h8.22c.28,0,0-.28,0,0v16.44c0,.28.28,0,0,0h-8.22c-.16,0-.28.13-.28.28v17.01c0,.16.13.28.28.28h8.22c.28,0,0-.28,0,0v16.44c0,.28.28,0,0,0h-8.22c-.16,0-.28.13-.28.28v17.01c0,.16.13.28.28.28h8.22c.28,0,0-.28,0,0v29.48c0,.16.13.28.28.28Z"/>
  </g>
  <g id="p-13">
    <path class="st0" d="M2204.36,686.13h26.82c.29,0,0-.28,0,0v8.22c0,.16.13.28.29.28h17.01c.16,0,.28-.13.28-.28v-8.22c0-.28-.28,0,0,0h16.44c.29,0,0-.28,0,0v8.22c0,.16.13.28.29.28h17.01c.16,0,.28-.13.28-.28v-8.22c0-.28-.28,0,0,0h62.15c.29,0,0-.28,0,0v8.22c0,.16.13.28.29.28h17.01c.16,0,.28-.13.28-.28v-8.22c0-.28-.28,0,0,0h16.44c.28,0,0-.28,0,0v8.22c0,.16.12.28.28.28h17.01c.16,0,.28-.13.28-.28v-8.22c0-.28-.28,0,0,0h26.82c.16,0,.28-.13.28-.28v-29.48c0-.28-.28,0,0,0h8.22c.16,0,.28-.13.28-.28v-17.01c0-.16-.13-.28-.28-.28h-8.22c-.28,0,0,.28,0,0v-16.44c0-.28-.28,0,0,0h8.22c.16,0,.28-.13.28-.28v-17.01c0-.16-.13-.28-.28-.28h-8.22c-.28,0,0,.28,0,0v-16.44c0-.28-.28,0,0,0h8.22c.16,0,.28-.13.28-.28v-17.01c0-.16-.13-.28-.28-.28h-8.22c-.28,0,0,.28,0,0v-16.44c0-.28-.28,0,0,0h8.22c.16,0,.28-.13.28-.28v-17.01c0-.16-.13-.28-.28-.28h-8.22c-.28,0,0,.28,0,0v-16.44c0-.28-.28,0,0,0h8.22c.16,0,.28-.13.28-.28v-17.01c0-.16-.13-.28-.28-.28h-8.22c-.28,0,0,.28,0,0v-16.44c0-.28-.28,0,0,0h8.22c.16,0,.28-.13.28-.28v-17.01c0-.16-.13-.28-.28-.28h-8.22c-.28,0,0,.28,0,0v-16.44c0-.28-.28,0,0,0h8.22c.16,0,.28-.13.28-.28v-17.01c0-.16-.13-.28-.28-.28h-8.22c-.28,0,0,.28,0,0v-16.44c0-.28-.28,0,0,0h8.22c.16,0,.28-.13.28-.28v-17.01c0-.16-.13-.28-.28-.28h-8.22c-.28,0,0,.28,0,0v-16.44c0-.28-.28,0,0,0h8.22c.16,0,.28-.13.28-.28v-17.01c0-.16-.13-.28-.28-.28h-8.22c-.28,0,0,.28,0,0v-16.44c0-.28-.28,0,0,0h8.22c.16,0,.28-.13.28-.28v-17.01c0-.16-.13-.28-.28-.28h-8.22c-.28,0,0,.28,0,0v-16.44c0-.28-.28,0,0,0h8.22c.16,0,.28-.13.28-.28v-17.01c0-.16-.13-.28-.28-.28h-8.22c-.28,0,0,.28,0,0v-29.48c0-.16-.13-.28-.28-.28h-105.24c-.16,0-.28.13-.28.28v208.06c0,.28.28,0,0,0h-7.94c-.28,0,0,.28,0,0v-208.06c0-.16-.13-.28-.28-.28h-105.24c-.16,0-.28.13-.28.28v29.48c0,.28.28,0,0,0h-8.22c-.16,0-.28.13-.28.28v17.01c0,.16.13.28.28.28h8.22c.28,0,0-.28,0,0v16.44c0,.28.28,0,0,0h-8.22c-.16,0-.28.13-.28.28v17.01c0,.16.13.28.28.28h8.22c.28,0,0-.28,0,0v16.44c0,.28.28,0,0,0h-8.22c-.16,0-.28.13-.28.28v17.01c0,.16.13.28.28.28h8.22c.28,0,0-.28,0,0v16.44c0,.28.28,0,0,0h-8.22c-.16,0-.28.13-.28.28v17.01c0,.16.13.28.28.28h8.22c.28,0,0-.28,0,0v16.44c0,.28.28,0,0,0h-8.22c-.16,0-.28.13-.28.28v17.01c0,.16.13.28.28.28h8.22c.28,0,0-.28,0,0v16.44c0,.28.28,0,0,0h-8.22c-.16,0-.28.13-.28.28v17.01c0,.16.13.28.28.28h8.22c.28,0,0-.28,0,0v16.44c0,.28.28,0,0,0h-8.22c-.16,0-.28.13-.28.28v17.01c0,.16.13.28.28.28h8.22c.28,0,0-.28,0,0v16.44c0,.28.28,0,0,0h-8.22c-.16,0-.28.13-.28.28v17.01c0,.16.13.28.28.28h8.22c.28,0,0-.28,0,0v16.44c0,.28.28,0,0,0h-8.22c-.16,0-.28.13-.28.28v17.01c0,.16.13.28.28.28h8.22c.28,0,0-.28,0,0v16.44c0,.28.28,0,0,0h-8.22c-.16,0-.28.13-.28.28v17.01c0,.16.13.28.28.28h8.22c.28,0,0-.28,0,0v16.44c0,.28.28,0,0,0h-8.22c-.16,0-.28.13-.28.28v17.01c0,.16.13.28.28.28h8.22c.28,0,0-.28,0,0v29.48c0,.16.13.28.28.28Z"/>
  </g>
  <g id="p-14">
    <path class="st0" d="M2445.17,686.13h26.82c.29,0,0-.28,0,0v8.22c0,.16.13.28.29.28h17.01c.16,0,.28-.13.28-.28v-8.22c0-.28-.28,0,0,0h16.44c.29,0,0-.28,0,0v8.22c0,.16.13.28.29.28h17.01c.16,0,.28-.13.28-.28v-8.22c0-.28-.28,0,0,0h62.15c.28,0,0-.28,0,0v8.22c0,.16.12.28.28.28h17.01c.16,0,.28-.13.28-.28v-8.22c0-.28-.28,0,0,0h16.44c.28,0,0-.28,0,0v8.22c0,.16.12.28.28.28h17.01c.16,0,.28-.13.28-.28v-8.22c0-.28-.28,0,0,0h35.33c.16,0,.28-.13.28-.28v-29.76c0-.16-.13-.28-.28-.28h-8.22c-.28,0,0,.28,0,0v-16.44c0-.28-.28,0,0,0h8.22c.16,0,.28-.13.28-.28v-17.01c0-.16-.13-.28-.28-.28h-8.22c-.28,0,0,.28,0,0v-16.44c0-.28-.28,0,0,0h8.22c.16,0,.28-.13.28-.28v-17.01c0-.16-.13-.28-.28-.28h-8.22c-.28,0,0,.28,0,0v-16.44c0-.28-.28,0,0,0h8.22c.16,0,.28-.13.28-.28v-17.01c0-.16-.13-.28-.28-.28h-8.22c-.28,0,0,.28,0,0v-16.44c0-.28-.28,0,0,0h8.22c.16,0,.28-.13.28-.28v-17.01c0-.16-.13-.28-.28-.28h-8.22c-.28,0,0,.28,0,0v-16.44c0-.28-.28,0,0,0h8.22c.16,0,.28-.13.28-.28v-17.01c0-.16-.13-.28-.28-.28h-8.22c-.28,0,0,.28,0,0v-16.44c0-.28-.28,0,0,0h8.22c.16,0,.28-.13.28-.28v-17.01c0-.16-.13-.28-.28-.28h-8.22c-.28,0,0,.28,0,0v-16.44c0-.28-.28,0,0,0h8.22c.16,0,.28-.13.28-.28v-17.01c0-.16-.13-.28-.28-.28h-8.22c-.28,0,0,.28,0,0v-16.44c0-.28-.28,0,0,0h8.22c.16,0,.28-.13.28-.28v-17.01c0-.16-.13-.28-.28-.28h-8.22c-.28,0,0,.28,0,0v-16.44c0-.28-.28,0,0,0h8.22c.16,0,.28-.13.28-.28v-17.01c0-.16-.13-.28-.28-.28h-8.22c-.28,0,0,.28,0,0v-16.44c0-.28-.28,0,0,0h8.22c.16,0,.28-.13.28-.28v-17.01c0-.16-.13-.28-.28-.28h-8.22c-.28,0,0,.28,0,0v-16.44c0-.28-.28,0,0,0h8.22c.16,0,.28-.13.28-.28v-29.76c0-.16-.13-.28-.28-.28h-235.98c-.16,0-.28.13-.28.28v29.76c0,.16.13.28.28.28h8.22c.28,0,0-.28,0,0v16.44c0,.28.28,0,0,0h-8.22c-.16,0-.28.13-.28.28v17.01c0,.16.13.28.28.28h8.22c.28,0,0-.28,0,0v16.44c0,.28.28,0,0,0h-8.22c-.16,0-.28.13-.28.28v17.01c0,.16.13.28.28.28h8.22c.28,0,0-.28,0,0v16.44c0,.28.28,0,0,0h-8.22c-.16,0-.28.13-.28.28v17.01c0,.16.13.28.28.28h8.22c.28,0,0-.28,0,0v16.44c0,.28.28,0,0,0h-8.22c-.16,0-.28.13-.28.28v17.01c0,.16.13.28.28.28h8.22c.28,0,0-.28,0,0v16.44c0,.28.28,0,0,0h-8.22c-.16,0-.28.13-.28.28v17.01c0,.16.13.28.28.28h8.22c.28,0,0-.28,0,0v16.44c0,.28.28,0,0,0h-8.22c-.16,0-.28.13-.28.28v17.01c0,.16.13.28.28.28h8.22c.28,0,0-.28,0,0v16.44c0,.28.28,0,0,0h-8.22c-.16,0-.28.13-.28.28v17.01c0,.16.13.28.28.28h8.22c.28,0,0-.28,0,0v16.44c0,.28.28,0,0,0h-8.22c-.16,0-.28.13-.28.28v17.01c0,.16.13.28.28.28h8.22c.28,0,0-.28,0,0v16.44c0,.28.28,0,0,0h-8.22c-.16,0-.28.13-.28.28v17.01c0,.16.13.28.28.28h8.22c.28,0,0-.28,0,0v16.44c0,.28.28,0,0,0h-8.22c-.16,0-.28.13-.28.28v17.01c0,.16.13.28.28.28h8.22c.28,0,0-.28,0,0v16.44c0,.28.28,0,0,0h-8.22c-.16,0-.28.13-.28.28v29.76c0,.16.13.28.28.28h8.5Z"/>
    <path class="st1" d="M2558.62,647.57v8.22c0,.28.28,0,0,0h-7.94c-.28,0,0,.28,0,0v-16.44c0-.28-.28,0,0,0h7.94c.28,0,0-.28,0,0v8.22Z"/>
    <path class="st1" d="M2558.62,613.56v8.22c0,.28.28,0,0,0h-7.94c-.28,0,0,.28,0,0v-16.44c0-.28-.28,0,0,0h7.94c.28,0,0-.28,0,0v8.22Z"/>
    <path class="st1" d="M2558.62,579.54v8.22c0,.28.28,0,0,0h-7.94c-.28,0,0,.28,0,0v-16.44c0-.28-.28,0,0,0h7.94c.28,0,0-.28,0,0v8.22Z"/>
    <path class="st1" d="M2558.62,545.53v8.22c0,.28.28,0,0,0h-7.94c-.28,0,0,.28,0,0v-16.44c0-.28-.28,0,0,0h7.94c.28,0,0-.28,0,0v8.22Z"/>
    <path class="st1" d="M2558.62,511.51v8.22c0,.28.28,0,0,0h-7.94c-.28,0,0,.28,0,0v-16.44c0-.28-.28,0,0,0h7.94c.28,0,0-.28,0,0v8.22Z"/>
    <path class="st1" d="M2558.62,477.5v8.22c0,.28.28,0,0,0h-7.94c-.28,0,0,.28,0,0v-16.44c0-.28-.28,0,0,0h7.94c.28,0,0-.28,0,0v8.22Z"/>
    <path class="st1" d="M2558.62,443.48v8.22c0,.28.28,0,0,0h-7.94c-.28,0,0,.28,0,0v-16.44c0-.28-.28,0,0,0h7.94c.28,0,0-.28,0,0v8.22Z"/>
    <path class="st1" d="M2558.62,409.46v8.22c0,.28.28,0,0,0h-7.94c-.28,0,0,.28,0,0v-16.44c0-.28-.28,0,0,0h7.94c.28,0,0-.28,0,0v8.22Z"/>
    <path class="st1" d="M2558.62,375.45v8.22c0,.28.28,0,0,0h-7.94c-.28,0,0,.28,0,0v-16.44c0-.28-.28,0,0,0h7.94c.28,0,0-.28,0,0v8.22Z"/>
    <path class="st1" d="M2558.62,341.43v8.22c0,.28.28,0,0,0h-7.94c-.28,0,0,.28,0,0v-16.44c0-.28-.28,0,0,0h7.94c.28,0,0-.28,0,0v8.22Z"/>
    <path class="st1" d="M2558.62,307.42v8.22c0,.28.28,0,0,0h-7.94c-.28,0,0,.28,0,0v-16.44c0-.28-.28,0,0,0h7.94c.28,0,0-.28,0,0v8.22Z"/>
  </g>
</svg>